<svg width="81" height="24" viewBox="0 0 81 24" fill="none" xmlns="http://www.w3.org/2000/svg">
<g clip-path="url(#clip0_1575_3005)">
<path fill-rule="evenodd" clip-rule="evenodd" d="M25.2464 14.0376H26.8993C27.5604 14.0376 27.9461 13.7569 27.9461 13.0902C27.9461 12.3533 27.7349 11.941 26.8993 11.941H25.2464V14.0376ZM25.2464 11.0637H26.8993C27.5604 11.0637 27.9461 10.783 27.9461 10.1162C27.9461 9.37933 27.7349 8.96711 26.8993 8.96711H25.2464V11.0637ZM24.3281 8.08984H26.8993C28.2492 8.08984 28.8643 8.87939 28.8643 10.1162C28.8643 10.6251 28.7451 11.09 28.2583 11.5023C28.7819 11.976 28.8643 12.4409 28.8643 13.0902C28.8643 14.2394 28.0654 14.9149 26.8993 14.9149H24.3281V8.08984Z" fill="white"/>
<path fill-rule="evenodd" clip-rule="evenodd" d="M30.2266 10.8093C30.2266 10.5023 30.2634 10.1865 30.6674 10.1865C31.0163 10.1865 31.1081 10.4673 31.1081 10.7479V11.09L31.7968 10.5461C32.0449 10.3532 32.3018 10.1865 32.5774 10.1865H33.2844C33.6242 10.1865 33.9088 10.2917 34.1476 10.5199C34.4415 10.8005 34.5425 11.09 34.5425 11.4761C34.5425 11.7655 34.4874 12.0638 34.1109 12.0638C33.7896 12.0638 33.6609 11.8181 33.6609 11.5462C33.6609 11.4058 33.6609 11.3006 33.5691 11.1779C33.4589 11.0287 33.2477 11.0287 33.0365 11.0287H32.7794C32.6142 11.0287 32.4948 11.1075 32.3387 11.2305L31.1081 12.2042V14.3359C31.1081 14.6253 31.044 14.9149 30.6674 14.9149C30.2909 14.9149 30.2266 14.6253 30.2266 14.3359V10.8093Z" fill="white"/>
<path fill-rule="evenodd" clip-rule="evenodd" d="M39.9341 14.2921C39.9341 14.4851 39.9708 14.9149 39.5025 14.9149C39.126 14.9149 39.0618 14.6167 39.0618 14.3272V14.1869L38.3455 14.6343C38.0609 14.8097 37.8221 14.9149 37.5833 14.9149H36.9313C36.6835 14.9149 36.4079 14.8448 36.1141 14.6078C35.7192 14.2833 35.7284 13.9237 35.7101 13.4674L35.6182 10.8181C35.609 10.511 35.6551 10.1865 36.059 10.1865C36.4355 10.1865 36.4814 10.4935 36.4906 10.7655L36.5824 13.3534C36.5916 13.5464 36.6007 13.7745 36.6742 13.8973C36.7477 14.0202 36.9772 14.0728 37.1884 14.0728H37.4823C37.5833 14.0728 37.6751 14.0464 37.7578 13.9938L39.0526 13.2131V10.7655C39.0526 10.476 39.1169 10.1865 39.4934 10.1865C39.8698 10.1865 39.9341 10.476 39.9341 10.7655V14.2921Z" fill="white"/>
<path fill-rule="evenodd" clip-rule="evenodd" d="M43.9376 11.0285C43.8457 11.0285 43.7539 11.0548 43.6622 11.1074L42.3581 11.8883V14.3358C42.3581 14.6252 42.2939 14.9148 41.9174 14.9148C41.5409 14.9148 41.4766 14.6252 41.4766 14.3358V9.02834C41.4766 8.73883 41.5409 8.44922 41.9174 8.44922C42.2939 8.44922 42.3581 8.73883 42.3581 9.02834V10.9144L43.0744 10.4671C43.3039 10.3267 43.5703 10.1864 43.8642 10.1864H44.4519C44.6263 10.1864 44.9385 10.1864 45.3058 10.4932C45.7006 10.818 45.6823 11.1777 45.7006 11.6338L45.7925 14.2832C45.8017 14.5814 45.7557 14.9148 45.3609 14.9148C45.0028 14.9148 44.9293 14.6252 44.9202 14.3444L44.8283 11.7478C44.8098 11.3443 44.8376 11.0285 44.3416 11.0285H43.9376Z" fill="white"/>
<path fill-rule="evenodd" clip-rule="evenodd" d="M48.1784 11.8884V14.3359C48.1784 14.6254 48.1142 14.9149 47.7378 14.9149C47.3612 14.9149 47.2969 14.6254 47.2969 14.3359V10.8093C47.2969 10.5024 47.3337 10.1865 47.7378 10.1865C48.1326 10.1865 48.1784 10.5024 48.1784 10.8006V10.8971V10.9147L48.8947 10.4673C49.1243 10.3268 49.3721 10.1865 49.6568 10.1865H50.3089C50.6486 10.1865 50.8598 10.2742 51.1261 10.4935C51.521 10.8181 51.5026 11.1779 51.521 11.6339L51.6128 14.2833C51.622 14.5816 51.576 14.9149 51.1812 14.9149C50.8231 14.9149 50.7496 14.6254 50.7405 14.3447L50.6486 11.748C50.6302 11.2305 50.5844 11.0287 50.0518 11.0287H49.7579C49.666 11.0287 49.5742 11.0549 49.4825 11.1075L48.1784 11.8884Z" fill="white"/>
<path fill-rule="evenodd" clip-rule="evenodd" d="M54.2934 14.0376H55.9461C56.6074 14.0376 56.9931 13.7569 56.9931 13.0902C56.9931 12.3533 56.7818 11.941 55.9461 11.941H54.2934V14.0376ZM54.2934 11.0637H55.9461C56.6074 11.0637 56.9931 10.783 56.9931 10.1162C56.9931 9.37933 56.7818 8.96711 55.9461 8.96711H54.2934V11.0637ZM53.375 8.08984H55.9461C57.296 8.08984 57.9112 8.87939 57.9112 10.1162C57.9112 10.6251 57.7918 11.09 57.3053 11.5023C57.8285 11.976 57.9112 12.4409 57.9112 13.0902C57.9112 14.2394 57.1124 14.9149 55.9461 14.9149H53.375V8.08984Z" fill="white"/>
<path fill-rule="evenodd" clip-rule="evenodd" d="M59.2656 10.8093C59.2656 10.5023 59.3024 10.1865 59.7062 10.1865C60.0553 10.1865 60.147 10.4673 60.147 10.7479V11.09L60.8359 10.5461C61.0836 10.3532 61.3409 10.1865 61.6164 10.1865H62.3235C62.6631 10.1865 62.9479 10.2917 63.1867 10.5199C63.4803 10.8005 63.5815 11.09 63.5815 11.4761C63.5815 11.7655 63.5263 12.0638 63.1499 12.0638C62.8285 12.0638 62.6999 11.8181 62.6999 11.5462C62.6999 11.4058 62.6999 11.3006 62.608 11.1779C62.4978 11.0287 62.2867 11.0287 62.0755 11.0287H61.8185C61.6532 11.0287 61.5338 11.1075 61.3776 11.2305L60.147 12.2042V14.3359C60.147 14.6253 60.0828 14.9149 59.7062 14.9149C59.3299 14.9149 59.2656 14.6253 59.2656 14.3359V10.8093Z" fill="white"/>
<path fill-rule="evenodd" clip-rule="evenodd" d="M68.9732 14.2921C68.9732 14.4851 69.0099 14.9149 68.5416 14.9149C68.1649 14.9149 68.1007 14.6167 68.1007 14.3272V14.1869L67.3844 14.6343C67.0997 14.8097 66.8608 14.9149 66.6224 14.9149H65.9703C65.7225 14.9149 65.447 14.8448 65.153 14.6078C64.7581 14.2833 64.7674 13.9237 64.7489 13.4674L64.6573 10.8181C64.648 10.511 64.694 10.1865 65.0978 10.1865C65.4745 10.1865 65.5205 10.4935 65.5294 10.7655L65.6213 13.3534C65.6306 13.5464 65.6398 13.7745 65.7133 13.8973C65.7867 14.0202 66.0162 14.0728 66.2275 14.0728H66.5212C66.6224 14.0728 66.7141 14.0464 66.7967 13.9938L68.0915 13.2131V10.7655C68.0915 10.476 68.1557 10.1865 68.5323 10.1865C68.9087 10.1865 68.9732 10.476 68.9732 10.7655V14.2921Z" fill="white"/>
<path fill-rule="evenodd" clip-rule="evenodd" d="M72.9765 11.0285C72.8846 11.0285 72.793 11.0548 72.7011 11.1074L71.397 11.8883V14.3358C71.397 14.6252 71.3328 14.9148 70.9562 14.9148C70.5798 14.9148 70.5156 14.6252 70.5156 14.3358V9.02834C70.5156 8.73883 70.5798 8.44922 70.9562 8.44922C71.3328 8.44922 71.397 8.73883 71.397 9.02834V10.9144L72.1133 10.4671C72.3429 10.3267 72.6092 10.1864 72.9032 10.1864H73.4908C73.6652 10.1864 73.9774 10.1864 74.3447 10.4932C74.7396 10.818 74.7212 11.1777 74.7396 11.6338L74.8315 14.2832C74.8406 14.5814 74.7945 14.9148 74.3999 14.9148C74.0418 14.9148 73.9683 14.6252 73.9592 14.3444L73.8672 11.7478C73.849 11.3443 73.8765 11.0285 73.3807 11.0285H72.9765Z" fill="white"/>
<path fill-rule="evenodd" clip-rule="evenodd" d="M77.2173 11.8884V14.3359C77.2173 14.6254 77.1531 14.9149 76.7765 14.9149C76.4002 14.9149 76.3359 14.6254 76.3359 14.3359V10.8093C76.3359 10.5024 76.3727 10.1865 76.7765 10.1865C77.1714 10.1865 77.2173 10.5024 77.2173 10.8006V10.8971V10.9147L77.9337 10.4673C78.1632 10.3268 78.4113 10.1865 78.6957 10.1865H79.3479C79.6875 10.1865 79.8988 10.2742 80.1651 10.4935C80.5599 10.8181 80.5415 11.1779 80.5599 11.6339L80.6518 14.2833C80.6609 14.5816 80.6149 14.9149 80.2202 14.9149C79.8621 14.9149 79.7886 14.6254 79.7795 14.3447L79.6875 11.748C79.6693 11.2305 79.6233 11.0287 79.0905 11.0287H78.7969C78.7049 11.0287 78.6132 11.0549 78.5214 11.1075L77.2173 11.8884Z" fill="white"/>
<path fill-rule="evenodd" clip-rule="evenodd" d="M27.0555 22.8111H28.4053C28.644 22.8111 28.8644 22.9338 28.8644 23.2497C28.8644 23.5655 28.644 23.6883 28.4053 23.6883H24.7873C24.5486 23.6883 24.3281 23.5655 24.3281 23.2497C24.3281 22.9338 24.5486 22.8111 24.7873 22.8111H26.1372V17.7405H24.7873C24.5486 17.7405 24.3281 17.6176 24.3281 17.3017C24.3281 16.986 24.5486 16.8633 24.7873 16.8633H28.4053C28.644 16.8633 28.8644 16.986 28.8644 17.3017C28.8644 17.6176 28.644 17.7405 28.4053 17.7405H27.0555V22.8111Z" fill="white"/>
<path fill-rule="evenodd" clip-rule="evenodd" d="M30.9128 20.6609V23.1084C30.9128 23.3979 30.8485 23.6874 30.4721 23.6874C30.0956 23.6874 30.0312 23.3979 30.0312 23.1084V19.5817C30.0312 19.2748 30.0681 18.959 30.4721 18.959C30.867 18.959 30.9128 19.2748 30.9128 19.5731V19.6696V19.6872L31.6291 19.2397C31.8586 19.0993 32.1065 18.959 32.3912 18.959H33.0433C33.383 18.959 33.5942 19.0467 33.8605 19.266C34.2553 19.5906 34.237 19.9503 34.2553 20.4064L34.3471 23.0558C34.3564 23.354 34.3104 23.6874 33.9155 23.6874C33.5574 23.6874 33.4839 23.3979 33.4749 23.1172L33.383 20.5205C33.3645 20.0029 33.3187 19.8011 32.7862 19.8011H32.4923C32.4004 19.8011 32.3085 19.8274 32.2168 19.88L30.9128 20.6609Z" fill="white"/>
<path fill-rule="evenodd" clip-rule="evenodd" d="M36.7331 20.6609V23.1084C36.7331 23.3979 36.6689 23.6874 36.2924 23.6874C35.9159 23.6874 35.8516 23.3979 35.8516 23.1084V19.5817C35.8516 19.2748 35.8884 18.959 36.2924 18.959C36.6873 18.959 36.7331 19.2748 36.7331 19.5731V19.6696V19.6872L37.4494 19.2397C37.6789 19.0993 37.9268 18.959 38.2115 18.959H38.8636C39.2033 18.959 39.4145 19.0467 39.6808 19.266C40.0756 19.5906 40.0573 19.9503 40.0756 20.4064L40.1675 23.0558C40.1767 23.354 40.1307 23.6874 39.7359 23.6874C39.3778 23.6874 39.3043 23.3979 39.2952 23.1172L39.2033 20.5205C39.1849 20.0029 39.1391 19.8011 38.6065 19.8011H38.3126C38.2207 19.8011 38.1289 19.8274 38.0372 19.88L36.7331 20.6609Z" fill="white"/>
<path fill-rule="evenodd" clip-rule="evenodd" d="M42.4909 22.118C42.4909 22.2936 42.5552 22.4074 42.8124 22.6181C43.0052 22.776 43.1429 22.8461 43.4184 22.8461H44.1162C44.3918 22.8461 44.5295 22.776 44.7223 22.6181C44.9794 22.4074 45.0438 22.2936 45.0438 22.118V20.5302C45.0438 20.3547 44.9794 20.2407 44.7223 20.03C44.5295 19.8722 44.3918 19.8021 44.1162 19.8021H43.4184C43.1429 19.8021 43.0052 19.8722 42.8124 20.03C42.5552 20.2407 42.4909 20.3547 42.4909 20.5302V22.118ZM41.6094 20.5302C41.6094 19.9688 41.7288 19.7758 42.1695 19.4335C42.6011 19.0915 42.8031 18.96 43.4184 18.96H44.1162C44.7316 18.96 44.9336 19.0915 45.3652 19.4335C45.8059 19.7758 45.9253 19.9688 45.9253 20.5302V22.118C45.9253 22.6707 45.7784 22.8812 45.3192 23.2496C44.86 23.6182 44.6765 23.6884 44.1162 23.6884H43.4184C42.8583 23.6884 42.6746 23.6182 42.2154 23.2496C41.7564 22.8812 41.6094 22.6707 41.6094 22.118V20.5302Z" fill="white"/>
<path fill-rule="evenodd" clip-rule="evenodd" d="M50.8016 20.0125V19.5827C50.8016 19.2845 50.8566 18.96 51.2515 18.96C51.5637 18.96 51.6831 19.1967 51.6831 19.4686V20.0653C51.6831 20.2056 51.6463 20.2757 51.5821 20.4074L50.269 23.162C50.1862 23.3374 50.0302 23.6884 49.8099 23.6884H49.2406C49.0201 23.6884 48.8641 23.3374 48.7814 23.162L47.4682 20.4074C47.404 20.2757 47.3672 20.2056 47.3672 20.0653V19.4686C47.3672 19.1967 47.4866 18.96 47.7988 18.96C48.1936 18.96 48.2487 19.2845 48.2487 19.5827V20.0125L49.5252 22.8111L50.8016 20.0125Z" fill="white"/>
<path fill-rule="evenodd" clip-rule="evenodd" d="M54.2815 21.5741C54.0427 21.5741 53.6939 21.6356 53.6939 21.9425V22.504C53.6939 22.7848 54.052 22.8461 54.2633 22.8461H55.2367L56.21 22.3637V22.1795C56.21 21.7145 56.0721 21.5741 55.5856 21.5741H54.2815ZM54.2908 19.8021C54.0338 19.8021 53.6846 19.7494 53.6846 19.3809C53.6846 19.0212 53.9968 18.96 54.2908 18.96H55.5029C55.9619 18.96 56.2927 19.0037 56.6416 19.3372C56.9813 19.6617 57.0272 19.9162 57.0365 20.3372L57.1284 23.1971C57.1373 23.4427 57.009 23.6884 56.715 23.6884C56.4855 23.6884 56.2559 23.5041 56.2652 23.2673L55.659 23.5656C55.4109 23.6884 55.402 23.6884 55.1173 23.6884H54.2723C53.8777 23.6884 53.5929 23.6444 53.2715 23.3901C52.9044 23.1005 52.8125 22.7935 52.8125 22.3548V21.9865C52.8125 21.583 52.9134 21.3285 53.244 21.0477C53.547 20.7935 53.8867 20.732 54.2723 20.732H56.164V20.5389C56.164 19.9073 56.0171 19.8021 55.3836 19.8021H54.2908Z" fill="white"/>
<path fill-rule="evenodd" clip-rule="evenodd" d="M60.233 22.0998C60.233 22.5735 60.2148 22.8454 60.8207 22.8454H61.2708C61.6289 22.8454 61.7943 22.8191 61.8859 22.477C61.9412 22.2751 62.1065 22.1349 62.3268 22.1349C62.5749 22.1349 62.7769 22.319 62.7769 22.5558C62.7769 22.7928 62.6208 23.0911 62.4737 23.2578C62.1522 23.6261 61.7299 23.6876 61.2615 23.6876H60.8117C60.3709 23.6876 59.9853 23.591 59.6731 23.2665C59.3331 22.9068 59.3516 22.5472 59.3516 22.0909V19.8013H59.0669C58.8099 19.8013 58.4609 19.7486 58.4609 19.3801C58.4609 19.0205 58.7731 18.9592 59.0669 18.9592H59.3516V18.0994C59.3516 17.8099 59.4158 17.5205 59.7925 17.5205C60.1688 17.5205 60.233 17.8099 60.233 18.0994V18.9592H61.7117C62.0053 18.9592 62.3175 19.0205 62.3175 19.3801C62.3175 19.7486 61.9686 19.8013 61.7117 19.8013H60.233V22.0998Z" fill="white"/>
<path fill-rule="evenodd" clip-rule="evenodd" d="M65.2211 17.2571C65.2211 16.9589 65.3955 16.8623 65.6342 16.8623H66.1393C66.378 16.8623 66.5526 16.9589 66.5526 17.2571V17.6606C66.5526 17.9589 66.378 18.0554 66.1393 18.0554H65.6342C65.3955 18.0554 65.2211 17.9589 65.2211 17.6606V17.2571ZM66.5526 22.8452H67.2137C67.5077 22.8452 67.8199 22.9067 67.8199 23.2664C67.8199 23.6349 67.4707 23.6875 67.2137 23.6875H64.9731C64.7161 23.6875 64.3672 23.6349 64.3672 23.2664C64.3672 22.9067 64.6794 22.8452 64.9731 22.8452H65.6709V19.8012H64.9731C64.7161 19.8012 64.3672 19.7485 64.3672 19.38C64.3672 19.0203 64.6794 18.959 64.9731 18.959H65.9007C66.4058 18.959 66.5526 19.0467 66.5526 19.5467V22.8452Z" fill="white"/>
<path fill-rule="evenodd" clip-rule="evenodd" d="M70.0377 22.118C70.0377 22.2936 70.1021 22.4074 70.3591 22.6181C70.5519 22.776 70.6898 22.8461 70.9653 22.8461H71.6631C71.9386 22.8461 72.0763 22.776 72.269 22.6181C72.5263 22.4074 72.5905 22.2936 72.5905 22.118V20.5302C72.5905 20.3547 72.5263 20.2407 72.269 20.03C72.0763 19.8722 71.9386 19.8021 71.6631 19.8021H70.9653C70.6898 19.8021 70.5519 19.8722 70.3591 20.03C70.1021 20.2407 70.0377 20.3547 70.0377 20.5302V22.118ZM69.1562 20.5302C69.1562 19.9688 69.2757 19.7758 69.7162 19.4335C70.1478 19.0915 70.3499 18.96 70.9653 18.96H71.6631C72.2783 18.96 72.4804 19.0915 72.912 19.4335C73.3527 19.7758 73.4721 19.9688 73.4721 20.5302V22.118C73.4721 22.6707 73.325 22.8812 72.866 23.2496C72.4069 23.6182 72.223 23.6884 71.6631 23.6884H70.9653C70.405 23.6884 70.2215 23.6182 69.7622 23.2496C69.3031 22.8812 69.1562 22.6707 69.1562 22.118V20.5302Z" fill="white"/>
<path fill-rule="evenodd" clip-rule="evenodd" d="M76.0377 20.6609V23.1084C76.0377 23.3979 75.9734 23.6874 75.5968 23.6874C75.2205 23.6874 75.1562 23.3979 75.1562 23.1084V19.5817C75.1562 19.2748 75.193 18.959 75.5968 18.959C75.9917 18.959 76.0377 19.2748 76.0377 19.5731V19.6696V19.6872L76.754 19.2397C76.9835 19.0993 77.2316 18.959 77.516 18.959H78.1682C78.5079 18.959 78.7191 19.0467 78.9854 19.266C79.3802 19.5906 79.3618 19.9503 79.3802 20.4064L79.4721 23.0558C79.4812 23.354 79.4352 23.6874 79.0405 23.6874C78.6824 23.6874 78.6089 23.3979 78.5998 23.1172L78.5079 20.5205C78.4897 20.0029 78.4436 19.8011 77.9108 19.8011H77.6172C77.5252 19.8011 77.4335 19.8274 77.3417 19.88L76.0377 20.6609Z" fill="white"/>
<mask id="mask0_1575_3005" style="mask-type:luminance" maskUnits="userSpaceOnUse" x="0" y="12" width="13" height="12">
<path d="M0.515625 12.0439H12.718V23.7014H0.515625V12.0439Z" fill="white"/>
</mask>
<g mask="url(#mask0_1575_3005)">
<path fill-rule="evenodd" clip-rule="evenodd" d="M4.58309 19.0384V12.8211C4.58309 12.392 4.21892 12.0439 3.76958 12.0439H1.32914C0.879796 12.0439 0.515625 12.392 0.515625 12.8211V19.1717C0.515625 19.584 0.687006 19.9793 0.992218 20.2708L4.10661 23.2461C4.41171 23.5376 4.82545 23.7014 5.25705 23.7014H11.9045C12.3537 23.7014 12.718 23.3534 12.718 22.9243V20.5928C12.718 20.1635 12.3537 19.8156 11.9045 19.8156H5.39661C4.94726 19.8156 4.58309 19.4676 4.58309 19.0384Z" fill="white"/>
</g>
<path fill-rule="evenodd" clip-rule="evenodd" d="M12.7209 12.8212V19.0385C12.7209 19.4677 13.085 19.8157 13.5344 19.8157H15.9748C16.4242 19.8157 16.7883 19.4677 16.7883 19.0385V12.6879C16.7883 12.2757 16.617 11.8803 16.3117 11.5888L13.1974 8.61351C12.8923 8.32204 12.4785 8.1582 12.0469 8.1582H5.39945C4.95022 8.1582 4.58594 8.50622 4.58594 8.93539V11.2668C4.58594 11.6961 4.95022 12.044 5.39945 12.044H11.9074C12.3567 12.044 12.7209 12.3921 12.7209 12.8212Z" fill="white"/>
<mask id="mask1_1575_3005" style="mask-type:luminance" maskUnits="userSpaceOnUse" x="0" y="0" width="5" height="9">
<path d="M0.515625 0.386719H4.58309V8.15837H0.515625V0.386719Z" fill="white"/>
</mask>
<g mask="url(#mask1_1575_3005)">
<path fill-rule="evenodd" clip-rule="evenodd" d="M3.76958 8.15838H1.32914C0.879796 8.15838 0.515625 7.81048 0.515625 7.3812V1.16391C0.515625 0.734736 0.879796 0.386719 1.32914 0.386719H3.76958C4.21881 0.386719 4.58309 0.734736 4.58309 1.16391V7.3812C4.58309 7.81048 4.21881 8.15838 3.76958 8.15838Z" fill="white"/>
</g>
</g>
<defs>
<clipPath id="clip0_1575_3005">
<rect width="80.1381" height="23.296" fill="white" transform="translate(0.515625 0.386719)"/>
</clipPath>
</defs>
</svg>
