<svg width="56" height="23" viewBox="0 0 56 23" fill="none" xmlns="http://www.w3.org/2000/svg">
<g clip-path="url(#clip0_274_1965)">
<path d="M7.75748 5.13576H6.35102C6.22913 5.13576 6.17052 5.20771 6.17052 5.32609V8.09985H4.66796C3.00833 8.09985 2.72001 7.38726 2.72001 5.0638C2.72001 2.74035 3.00833 2.01383 4.66796 2.01383H7.33554C7.45743 2.01383 7.51604 1.95581 7.51604 1.83511V0.888084C7.51604 0.683824 7.41993 0.61419 7.23943 0.567767C6.64872 0.444747 5.47198 0.386719 4.66796 0.386719C1.60188 0.386719 0.80957 1.44516 0.80957 5.06613C0.80957 8.68709 1.60188 9.7316 4.66796 9.7316C6.13302 9.7316 7.60042 9.49485 7.88875 9.00509C7.92157 8.93314 7.93563 8.88439 7.93563 8.70566V5.32609C7.93563 5.20539 7.87468 5.13576 7.75513 5.13576H7.75748Z" fill="white"/>
<path d="M12.9351 0.386719C9.87376 0.386719 9.04395 1.45676 9.04395 5.07773C9.04395 8.6987 9.87376 9.7316 12.9375 9.7316C16.0012 9.7316 16.8334 8.67317 16.8334 5.07773C16.8334 1.48229 16.0012 0.386719 12.9351 0.386719ZM12.9351 8.09753C11.2755 8.09753 10.9544 7.38494 10.9544 5.07309C10.9544 2.76124 11.2779 2.01151 12.9351 2.01151C14.5924 2.01151 14.9206 2.73803 14.9206 5.07309C14.9206 7.40815 14.5971 8.09753 12.9351 8.09753Z" fill="white"/>
<path d="M22.8414 4.71796L20.5934 3.84753C20.0519 3.64559 19.8855 3.3717 19.8855 2.95621V2.78909C19.8855 2.26684 20.2582 2.01383 20.9919 2.01383H23.8399C23.9947 2.01383 24.0697 1.95581 24.0697 1.80029V0.83934C24.0697 0.730247 23.997 0.672218 23.8517 0.623474C22.914 0.456353 22.335 0.386719 21.3388 0.386719C19.2104 0.386719 17.975 0.897368 17.975 2.65911V2.9214C17.975 4.30247 18.4063 4.98024 19.4073 5.34698L21.749 6.21741C22.3749 6.45416 22.6163 6.69556 22.6163 7.20621V7.36173C22.6163 7.88398 22.2436 8.09985 21.5216 8.09985H18.1086C17.9516 8.09985 17.8789 8.1718 17.8789 8.31571V9.21863C17.8789 9.37415 17.9258 9.44611 18.0852 9.48092C19.215 9.65965 20.1644 9.7316 21.0552 9.7316C23.1344 9.7316 24.515 9.20703 24.515 7.44529V7.11337C24.515 5.73229 23.9993 5.1729 22.8437 4.72028H22.8414V4.71796Z" fill="white"/>
<path d="M29.1376 0.386719C28.1507 0.386719 26.9974 0.419215 25.9403 0.519023C25.7973 0.53295 25.7598 0.556162 25.7598 0.686145V9.48324C25.7598 9.63876 25.7973 9.67358 25.9403 9.67358H27.4639C27.6069 9.67358 27.6444 9.64108 27.6444 9.48324V6.34043H29.1353C31.77 6.34043 32.6584 5.85299 32.6584 3.45062C32.6584 1.04824 31.77 0.38904 29.1353 0.38904H29.1376V0.386719ZM28.9454 4.899H27.6468V2.01615H28.9454C30.373 2.01615 30.748 2.30165 30.748 3.4924C30.748 4.68314 30.3753 4.899 28.9454 4.899Z" fill="white"/>
<path d="M40.9311 9.4786L38.8144 1.81422C38.4534 0.516702 38.2237 0.386719 36.7703 0.386719C35.317 0.386719 35.1365 0.519023 34.7779 1.81422L32.6236 9.4786C32.5978 9.62019 32.6494 9.66894 32.7807 9.66894H34.3043C34.4262 9.66894 34.438 9.62251 34.4731 9.4786L35.1459 7.0948L35.5936 5.45608L35.678 5.14969L36.4703 2.30165C36.543 2.01616 36.5664 1.95813 36.7703 1.95813C37.0094 1.95813 37.0235 2.01616 37.1055 2.30165L37.9096 5.22861L37.9705 5.4584L38.3901 7.00659L38.4159 7.09712L39.0769 9.48092C39.1144 9.62251 39.1238 9.67126 39.2316 9.67126H40.7717C40.8913 9.67126 40.9522 9.62483 40.9264 9.48092H40.9241L40.9311 9.4786Z" fill="white"/>
<path d="M45.5 2.01616H47.9636C48.0855 2.01616 48.1441 1.95813 48.1441 1.83743V0.888084C48.1441 0.683824 48.048 0.61419 47.8675 0.567767C47.2768 0.458674 46.5572 0.386719 45.5 0.386719C42.4339 0.386719 41.6416 1.44516 41.6416 5.0522C41.6416 8.65924 42.4339 9.7316 45.5 9.7316C46.5595 9.7316 47.2792 9.67126 47.8675 9.55288C48.048 9.50646 48.1441 9.43218 48.1441 9.24185V8.27857C48.1441 8.1602 48.0855 8.09985 47.9636 8.09985H45.5C43.8404 8.09985 43.552 7.37333 43.552 5.0522C43.552 2.73106 43.8404 2.01616 45.5 2.01616Z" fill="white"/>
<path d="M55.6072 2.0883C55.7291 2.0883 55.7877 2.03027 55.7877 1.90957V0.63527C55.7877 0.514571 55.7291 0.456543 55.6072 0.456543H49.5828C49.4609 0.456543 49.4023 0.514571 49.4023 0.63527V9.47879C49.4023 9.6111 49.4609 9.66913 49.5828 9.66913H55.6072C55.7291 9.66913 55.7877 9.6111 55.7877 9.4904V8.21609C55.7877 8.0954 55.7291 8.03737 55.6072 8.03737H51.2917V5.90425H55.2321C55.354 5.90425 55.4243 5.84622 55.4243 5.72552V4.51157C55.4243 4.39087 55.3517 4.33284 55.2321 4.33284H51.2917V2.0883H55.6072Z" fill="white"/>
<path d="M15.8913 12.6562H12.3916V22.7184H15.8913V12.6562Z" fill="white"/>
<path d="M11.3232 12.6562H8.80566V22.7184H11.3232V12.6562Z" fill="white"/>
<path d="M7.73622 12.689H5.81641V22.7511H7.73622V12.689Z" fill="white"/>
<path d="M4.74751 12.6562H3.13477V22.7184H4.74751V12.6562Z" fill="white"/>
<path d="M2.09608 12.6562H0.893555V22.7184H2.09608V12.6562Z" fill="white"/>
<path d="M16.9648 12.6562V22.7184H55.7878V12.6562H16.9648ZM31.5123 20.5319C31.5123 20.6085 31.4748 20.6433 31.3998 20.6433H27.8063C27.7289 20.6433 27.6938 20.6061 27.6938 20.5226V14.8985C27.6938 14.8219 27.7313 14.7871 27.8063 14.7871H28.7768C28.8541 14.7871 28.8893 14.8265 28.8893 14.8985V19.6057H31.3951C31.4725 19.6057 31.5076 19.6429 31.5076 19.7171V20.5272H31.51L31.5123 20.5319ZM39.3205 20.6688H38.3407C38.2727 20.6688 38.2633 20.6386 38.2422 20.5481L37.839 19.0951L37.8062 18.9744L37.539 17.9902L37.4945 17.8231L36.9928 15.9871C36.9389 15.806 36.9319 15.7689 36.7772 15.7689C36.6482 15.7689 36.6342 15.8084 36.5849 15.9871L36.0599 17.8765L36.0294 17.9902L35.727 19.0904L35.3168 20.5435C35.2934 20.6363 35.2863 20.6642 35.209 20.6642H34.2385C34.1541 20.6642 34.1236 20.634 34.1401 20.5435L35.509 15.6691C35.7387 14.8451 35.8934 14.7615 36.7795 14.7615C37.6656 14.7615 37.8484 14.8451 38.0781 15.6691L39.4237 20.5435C39.4377 20.6363 39.4002 20.6642 39.3252 20.6642H39.3229L39.3205 20.6688ZM44.2806 20.6874C43.6547 20.6874 42.6374 20.6642 41.967 20.6108C41.8732 20.6015 41.8545 20.5806 41.8545 20.504V14.9333C41.8545 14.8497 41.8779 14.8358 41.967 14.8265C42.6398 14.7662 43.4719 14.7429 44.1001 14.7429C45.5816 14.7429 46.2169 15.1515 46.2169 16.3701C46.2169 17.1871 45.9801 17.5794 45.3542 17.6954V17.7186C46.1184 17.8115 46.3481 18.2711 46.3481 19.0788C46.3481 20.3137 45.7129 20.6827 44.2853 20.6827H44.283L44.2806 20.6874ZM52.9913 19.2343C52.9913 20.3555 52.1123 20.6874 50.7902 20.6874C50.2229 20.6874 49.6205 20.6433 48.9008 20.5272C48.8024 20.504 48.7719 20.4599 48.7719 20.3624V19.7868C48.7719 19.6939 48.8165 19.6498 48.9149 19.6498H51.0855C51.545 19.6498 51.7794 19.5129 51.7794 19.181V19.0835C51.7794 18.7585 51.627 18.6053 51.2285 18.4568L49.7377 17.9043C49.1048 17.6699 48.8282 17.2358 48.8282 16.3585V16.1913C48.8282 15.0702 49.6158 14.7453 50.9683 14.7453C51.6036 14.7453 51.9669 14.7894 52.567 14.8961C52.6608 14.9263 52.7053 14.9635 52.7053 15.0331V15.6459C52.7053 15.7434 52.6608 15.7828 52.5576 15.7828H50.748C50.2792 15.7828 50.0448 15.943 50.0448 16.2749V16.3817C50.0448 16.6463 50.1526 16.8204 50.4972 16.948L51.9247 17.5005C52.6584 17.7883 52.989 18.1434 52.989 19.0208V19.2343H52.9913Z" fill="white"/>
<path d="M44.2035 18.1455H43.0479V19.6519H44.1941C44.8528 19.6519 45.1247 19.5011 45.1247 18.9254C45.1247 18.3057 44.8106 18.1455 44.1988 18.1455H44.2011H44.2035Z" fill="white"/>
<path d="M45.0001 16.5558C45.0001 15.943 44.6954 15.7852 43.9757 15.7852H43.0498V17.2916H43.828C44.6836 17.2916 45.0001 17.1941 45.0001 16.5558Z" fill="white"/>
</g>
<defs>
<clipPath id="clip0_274_1965">
<rect width="54.9785" height="22.3641" fill="white" transform="translate(0.80957 0.386719)"/>
</clipPath>
</defs>
</svg>
