<svg width="156" height="26" viewBox="0 0 156 26" fill="none" xmlns="http://www.w3.org/2000/svg">
<g clip-path="url(#clip0_1575_3055)">
<path d="M9.02652 15.2266H7.67229L6.45815 21.6848C6.03787 23.8532 5.05723 24.6074 3.28272 24.6074C1.46151 24.6074 0.994534 23.7118 1.27472 22.0619L2.58225 15.2266H1.22802L-0.0328122 22.0147C-0.45309 24.0889 0.107281 25.7859 3.09593 25.7859C5.66429 25.7859 7.29871 24.5132 7.81238 21.8262L9.02652 15.2266Z" fill="white"/>
<path d="M16.6843 20.412C16.9645 18.8093 16.4975 17.8193 15.0966 17.8193C13.5089 17.8193 12.2948 19.375 11.5943 20.9777H11.5476C12.0613 19.3278 12.2948 18.4793 12.3881 17.9608H11.0806C10.8938 19.0921 10.6136 20.5063 10.4268 21.6377L9.67969 25.6446H11.0339L11.3608 23.9004C11.7344 22.0148 13.2754 18.9978 14.6763 18.9978C15.3768 18.9978 15.5636 19.5164 15.3301 20.742L14.3961 25.6446H15.7504L16.6843 20.412Z" fill="white"/>
<path d="M21.6277 15.745C21.6744 15.2736 21.2541 14.8965 20.7871 14.8965C20.2734 14.8965 19.8532 15.3207 19.8065 15.8393C19.7598 16.3107 20.1333 16.7349 20.647 16.7349C21.1607 16.6878 21.6277 16.2635 21.6277 15.745ZM21.0206 17.9606H19.6664L18.2188 25.6444H19.573L21.0206 17.9606Z" fill="white"/>
<path d="M29.2397 18.102L27.9789 17.6777L24.7568 23.9945C24.7101 23.5231 24.6634 23.0046 24.57 22.5332L23.8695 18.0077H22.4219L23.7761 25.6915H25.177L29.2397 18.102Z" fill="white"/>
<path d="M35.6866 19.5635C35.6866 18.6679 35.0796 17.8193 33.4451 17.8193C30.9235 17.8193 29.2891 20.3178 29.2891 23.2876C29.2891 25.0318 30.0829 25.786 31.8574 25.786C32.8381 25.786 33.7253 25.5974 34.4725 25.3146V24.1832C33.8187 24.4661 33.0716 24.6075 32.3244 24.6075C31.1103 24.6075 30.69 24.2775 30.69 23.099C30.69 22.8162 30.7367 22.4391 30.7834 22.2034C34.0522 22.1091 35.6866 21.2134 35.6866 19.5635ZM34.3324 19.7521C34.3324 20.6949 33.3051 21.1663 30.9235 21.2606C31.2971 19.9878 32.0909 18.9036 33.3051 18.9036C33.9121 18.8564 34.3324 19.1864 34.3324 19.7521Z" fill="white"/>
<path d="M41.8473 17.8185C40.3997 17.5828 39.4657 18.9498 38.6252 20.7883H38.5785C38.9988 19.4684 39.2322 18.6198 39.3723 17.9599H38.0648L36.6172 25.6437H37.9714L38.2983 23.8995C38.7186 21.7782 40.2129 18.7613 41.6138 19.1855L41.8473 17.8185Z" fill="white"/>
<path d="M46.7539 17.9136C46.3803 17.8665 46.0068 17.8193 45.4464 17.8193C43.4851 17.8193 42.4577 18.8564 42.4577 20.1292C42.4577 21.9677 44.7459 22.2034 44.7459 23.3819C44.7459 24.1832 44.0922 24.6075 43.0648 24.6075C42.6445 24.6075 42.2243 24.5132 41.8507 24.4189L41.6172 25.6446C41.9908 25.7389 42.411 25.7389 42.9247 25.7389C45.0728 25.7389 46.1936 24.5132 46.1936 23.2404C46.1936 21.4963 43.9054 21.1663 43.9054 19.9878C43.9054 19.3278 44.419 18.8564 45.3997 18.8564C45.7733 18.8564 46.1936 18.9036 46.5671 19.045L46.7539 17.9136Z" fill="white"/>
<path d="M51.19 15.745C51.2367 15.2736 50.8164 14.8965 50.3494 14.8965C49.8358 14.8965 49.4155 15.3207 49.3688 15.8393C49.3221 16.3107 49.6957 16.7349 50.2093 16.7349C50.723 16.6878 51.1433 16.2635 51.19 15.745ZM50.5362 17.9606H49.182L47.7344 25.6444H49.0886L50.5362 17.9606Z" fill="white"/>
<path d="M56.7928 17.9602H54.7381L55.2518 15.1318L53.8509 15.4618L53.3839 17.9602H51.8429L51.6094 19.0445H53.1504L52.3565 23.2871C52.0297 25.0313 52.4499 25.7855 53.991 25.7855C54.4112 25.7855 54.9716 25.7384 55.3919 25.6441L55.4853 24.4656C55.1584 24.5599 54.8782 24.607 54.4112 24.607C53.6641 24.607 53.524 24.277 53.7108 23.0985L54.4579 19.0916H56.5126L56.7928 17.9602Z" fill="white"/>
<path d="M64.3166 18.055C63.6161 17.9135 62.8223 17.8193 61.935 17.8193C58.6195 17.8193 57.1719 20.6005 57.1719 23.4289C57.1719 25.0317 57.7789 25.7388 58.853 25.7388C60.7209 25.7388 61.8416 23.6175 62.402 22.439H62.4487C61.9817 23.8532 61.7015 24.8903 61.5614 25.5502H62.9157C63.1959 23.806 63.4761 22.3447 64.3166 18.055ZM62.7756 19.092L62.6822 19.7049C62.3086 21.5433 60.7676 24.6074 59.32 24.6074C58.853 24.6074 58.5261 24.2303 58.5261 23.1932C58.5261 21.3076 59.4134 18.9506 61.6548 18.9506C62.1218 18.9506 62.4487 18.9978 62.7756 19.092ZM64.4567 15.5094C64.4567 15.0851 64.1298 14.708 63.6628 14.708C63.1959 14.708 62.8223 15.0851 62.8223 15.5565C62.8223 15.9808 63.1959 16.3579 63.6161 16.3579C64.0364 16.3579 64.4567 16.0279 64.4567 15.5094ZM61.5148 15.5094C61.5148 15.0851 61.1879 14.708 60.7209 14.708C60.2539 14.708 59.8803 15.0851 59.8803 15.5565C59.8803 15.9808 60.2539 16.3579 60.6742 16.3579C61.0945 16.3579 61.5148 16.0279 61.5148 15.5094Z" fill="white"/>
<path d="M70.3866 17.9602H68.3319L68.8455 15.1318L67.4446 15.4618L66.9776 17.9602H65.4366L65.2031 19.0445H66.7441L65.9503 23.2871C65.6234 25.0313 66.0437 25.7855 67.5847 25.7855C68.005 25.7855 68.5654 25.7384 68.9856 25.6441L69.079 24.4656C68.7521 24.5599 68.472 24.607 68.005 24.607C67.2578 24.607 67.1177 24.277 67.3045 23.0985L68.0517 19.0916H70.1064L70.3866 17.9602Z" fill="white"/>
<path d="M107.602 15.1787H105.827L102.371 21.8255C101.998 22.5797 101.718 23.0511 101.438 23.8053H101.391C101.391 23.1925 101.344 22.4854 101.251 21.7312L100.41 15.1787H98.7291L95.2734 25.5967H96.7211L98.5423 19.7042C98.8692 18.6671 99.1026 17.8657 99.3361 17.0172C99.3361 17.6771 99.4295 18.5728 99.5229 19.327L100.363 25.5967H101.811L105.22 18.9028C105.594 18.1485 105.874 17.5357 106.061 17.0172H106.107C106.061 17.63 105.967 18.4785 105.92 19.657L105.594 25.5967H107.041L107.602 15.1787Z" fill="white"/>
<path d="M116.662 17.9607H115.308L114.981 19.7049C114.607 21.5905 113.019 24.6074 111.618 24.6074C110.965 24.6074 110.731 24.0889 110.965 22.8632L111.899 17.9607H110.544L109.564 23.1932C109.237 24.796 109.751 25.7859 111.151 25.7859C112.739 25.7859 113.953 24.2303 114.654 22.6275H114.7C114.14 24.2774 113.953 25.126 113.86 25.6445H115.214L116.662 17.9607ZM116.335 15.5094C116.335 15.0851 116.008 14.708 115.541 14.708C115.074 14.708 114.7 15.0851 114.7 15.5565C114.7 15.9808 115.027 16.3579 115.494 16.3579C115.961 16.3579 116.335 16.0279 116.335 15.5094ZM113.393 15.5094C113.393 15.0851 113.066 14.708 112.599 14.708C112.132 14.708 111.759 15.0851 111.759 15.5565C111.759 15.9808 112.085 16.3579 112.552 16.3579C113.019 16.3579 113.393 15.9808 113.393 15.5094Z" fill="white"/>
<path d="M124.786 20.4589C125.066 18.8562 124.599 17.8662 123.198 17.8662C121.61 17.8662 120.396 19.4218 119.696 21.0246H119.649C120.209 19.3747 120.396 18.5262 120.489 18.0076H119.182C118.995 19.139 118.715 20.5532 118.481 21.6374L117.688 25.6443H119.042L119.369 23.9001C119.742 22.0145 121.283 18.9976 122.684 18.9976C123.385 18.9976 123.571 19.5161 123.338 20.7418L122.404 25.6443H123.758L124.786 20.4589Z" fill="white"/>
<path d="M132.259 18.1488C131.792 18.0074 131.278 17.9131 130.671 17.9131C127.962 17.9131 126.328 20.3644 126.281 23.2871C126.281 24.7484 126.935 25.8326 128.896 25.8326C129.643 25.8326 130.344 25.6912 130.904 25.4555L130.998 24.2299C130.531 24.4656 129.877 24.607 129.27 24.607C127.962 24.607 127.682 23.8056 127.682 23.0042C127.682 21.26 128.616 19.0916 130.531 19.0916C131.044 19.0916 131.511 19.1859 131.932 19.3744L132.259 18.1488Z" fill="white"/>
<path d="M139.684 20.5056C140.011 18.9028 139.497 17.9129 138.096 17.9129C136.509 17.9129 135.295 19.4685 134.594 21.0713H134.547C135.108 19.3742 135.295 18.6671 135.435 18.0543L136.135 14.4717H134.781L132.633 25.7382H133.987L134.314 23.994C134.688 22.1084 136.229 19.0914 137.629 19.0914C138.33 19.0914 138.517 19.6099 138.283 20.8356L137.349 25.7382H138.703L139.684 20.5056Z" fill="white"/>
<path d="M147.624 19.7041C147.624 18.8085 147.017 17.96 145.383 17.96C142.861 17.96 141.227 20.4112 141.227 23.4282C141.227 25.1724 142.02 25.9266 143.748 25.9266C144.729 25.9266 145.616 25.7852 146.363 25.4552V24.3239C145.71 24.6067 144.962 24.7481 144.215 24.7481C143.001 24.7481 142.581 24.4182 142.581 23.2396C142.581 22.9568 142.627 22.5797 142.674 22.344C145.943 22.2497 147.624 21.354 147.624 19.7041ZM146.27 19.8456C146.27 20.7884 145.243 21.2598 142.861 21.3069C143.235 20.0341 144.028 18.9499 145.243 18.9499C145.85 18.997 146.27 19.2799 146.27 19.8456Z" fill="white"/>
<path d="M155.559 20.5527C155.839 18.9499 155.372 17.96 153.971 17.96C152.384 17.96 151.169 19.5156 150.469 21.1183H150.422C150.983 19.4684 151.169 18.6199 151.263 18.1014H149.955C149.768 19.2327 149.488 20.6469 149.255 21.7312L148.461 25.7381H149.815L150.142 23.9939C150.516 22.1083 152.057 19.0913 153.458 19.0913C154.158 19.0913 154.345 19.6099 154.111 20.8355L153.177 25.7381H154.532L155.559 20.5527Z" fill="white"/>
<path d="M73.696 4.80859H72.9956L72.6687 6.59992C72.4819 6.55278 72.3418 6.55278 72.155 6.55278C70.4739 6.55278 69.7734 7.96698 69.7734 9.38118C69.7734 10.1826 70.0536 10.5597 70.614 10.5597C71.5479 10.5597 72.1083 9.5226 72.3885 8.90978C72.155 9.61688 72.0149 10.1354 71.9682 10.4654H72.622C72.6687 10.1354 72.7621 9.61688 72.8555 9.09834L73.696 4.80859ZM72.5753 7.1656L72.5286 7.49558C72.3418 8.39124 71.5946 9.94686 70.8475 9.94686C70.614 9.94686 70.4739 9.7583 70.4739 9.23976C70.4739 8.29696 70.8942 7.11846 72.0616 7.11846C72.2484 7.07132 72.4352 7.11846 72.5753 7.1656Z" fill="white"/>
<path d="M77.1051 7.40126C77.1051 6.92986 76.7782 6.55273 75.9844 6.55273C74.7236 6.55273 73.9297 7.77838 73.9297 9.28686C73.9297 10.1354 74.35 10.5125 75.1905 10.5125C75.7042 10.5125 76.1245 10.4182 76.4981 10.2768V9.71112C76.1712 9.85254 75.7976 9.94682 75.424 9.94682C74.8169 9.94682 74.5835 9.8054 74.5835 9.19258C74.5835 9.05116 74.5835 8.8626 74.6302 8.76832C76.2646 8.67404 77.1051 8.24978 77.1051 7.40126ZM76.4047 7.49554C76.4047 7.96694 75.891 8.20264 74.7235 8.24978C74.9103 7.58982 75.2839 7.07128 75.891 7.07128C76.2179 7.07128 76.4047 7.2127 76.4047 7.49554Z" fill="white"/>
<path d="M80.1463 6.55223C79.3992 6.41081 78.9322 7.11791 78.5119 8.06071C78.7454 7.40075 78.8388 6.97649 78.8855 6.64651H78.2317L77.5312 10.4649H78.185L78.3251 9.61633C78.5119 8.53211 79.2591 7.07077 79.9595 7.25933L80.1463 6.55223Z" fill="white"/>
<path d="M85.7507 6.22236C85.7507 5.60954 85.2837 5.23242 84.3031 5.23242C83.696 5.23242 83.1824 5.23242 82.8088 5.23242L81.8281 10.4178C82.2951 10.4178 82.8088 10.4178 83.1357 10.4178C84.5833 10.4178 85.3771 9.56931 85.3771 8.62651C85.3771 8.15511 85.097 7.77799 84.5833 7.68371C85.237 7.49515 85.7507 6.9766 85.7507 6.22236ZM85.0503 6.36378C85.0503 7.07088 84.3965 7.49515 83.5559 7.49515C83.3691 7.49515 83.2757 7.49515 83.1357 7.49515L83.4625 5.7981C83.696 5.7981 83.9295 5.7981 84.163 5.7981C84.8635 5.75096 85.0503 6.0338 85.0503 6.36378ZM84.6767 8.72079C84.6767 9.33361 84.2097 9.89929 83.2757 9.89929C82.9956 9.89929 82.7621 9.89929 82.6687 9.85215L82.9956 8.01369C83.1357 8.01369 83.3691 8.01369 83.5559 8.01369C84.3498 8.01369 84.6767 8.24939 84.6767 8.72079Z" fill="white"/>
<path d="M89.9005 6.59961H89.2467L89.1066 7.44813C88.9199 8.39093 88.126 9.89941 87.4255 9.89941C87.0987 9.89941 87.0052 9.61657 87.0986 9.05089L87.5656 6.59961H86.8652L86.3982 9.19231C86.2581 9.99369 86.4916 10.5122 87.192 10.5122C87.9859 10.5122 88.593 9.71085 88.9199 8.90947C88.6397 9.71085 88.5463 10.1823 88.4996 10.418H89.1533L89.9005 6.59961Z" fill="white"/>
<path d="M93.9633 7.82481C94.1033 7.02342 93.8699 6.50488 93.1694 6.50488C92.3755 6.50488 91.7685 7.30626 91.3949 8.10765C91.6751 7.30626 91.7685 6.83486 91.8152 6.59916H91.1614C91.068 7.16484 90.9279 7.87194 90.8345 8.43763L90.4609 10.4646H91.1147L91.2548 9.61613C91.4416 8.67333 92.1887 7.16484 92.8892 7.16484C93.2161 7.16484 93.3562 7.44768 93.2161 8.01337L92.7491 10.4646H93.4029L93.9633 7.82481Z" fill="white"/>
<path d="M98.6335 4.80859H97.9331L97.6062 6.59992C97.4194 6.55278 97.2793 6.55278 97.0925 6.55278C95.4581 6.55278 94.7109 7.96698 94.7109 9.38118C94.7109 10.1826 94.9911 10.5597 95.5515 10.5597C96.4854 10.5597 97.0458 9.5226 97.326 8.90978C97.0925 9.61688 96.9524 10.1354 96.9057 10.4654H97.5595C97.6062 10.1354 97.6996 9.61688 97.793 9.09834L98.6335 4.80859ZM97.5128 7.1656L97.4661 7.49558C97.2793 8.39124 96.5321 9.94686 95.785 9.94686C95.5515 9.94686 95.4114 9.7583 95.4114 9.23976C95.4114 8.29696 95.8317 7.11846 96.9991 7.11846C97.1859 7.07132 97.3727 7.11846 97.5128 7.1656Z" fill="white"/>
<path d="M102.043 7.40126C102.043 6.92986 101.716 6.55273 100.922 6.55273C99.661 6.55273 98.8672 7.77838 98.8672 9.28686C98.8672 10.1354 99.2875 10.5125 100.128 10.5125C100.642 10.5125 101.062 10.4182 101.436 10.2768V9.71112C101.109 9.85254 100.735 9.94682 100.362 9.94682C99.7544 9.94682 99.5677 9.8054 99.5677 9.19258C99.5677 9.05116 99.5677 8.8626 99.6144 8.76832C101.202 8.67404 102.043 8.24978 102.043 7.40126ZM101.342 7.49554C101.342 7.96694 100.828 8.20264 99.661 8.24978C99.8478 7.58982 100.221 7.07128 100.828 7.07128C101.155 7.07128 101.342 7.2127 101.342 7.49554Z" fill="white"/>
<path d="M104.896 6.59987C104.71 6.55273 104.523 6.55273 104.243 6.55273C103.262 6.55273 102.748 7.07128 102.748 7.73124C102.748 8.67404 103.916 8.76832 103.916 9.38114C103.916 9.8054 103.589 9.99396 103.075 9.99396C102.842 9.99396 102.655 9.94682 102.468 9.89968L102.328 10.5125C102.515 10.5596 102.748 10.5596 102.982 10.5596C104.056 10.5596 104.616 9.94682 104.616 9.334C104.616 8.48548 103.449 8.29692 103.449 7.6841C103.449 7.35412 103.729 7.11842 104.196 7.11842C104.383 7.11842 104.57 7.16556 104.756 7.2127L104.896 6.59987Z" fill="white"/>
<path d="M111.151 6.64657L110.497 6.45801L109.002 9.61639C109.002 9.38069 108.956 8.90929 108.909 8.62645L108.629 6.59943H107.928L106.481 9.61639C106.481 9.38069 106.434 9.00357 106.434 8.67359L106.247 6.64657H105.547L105.967 10.4649H106.714L108.162 7.54223C108.162 7.82507 108.209 8.06077 108.209 8.29647L108.489 10.4649H109.283L111.151 6.64657Z" fill="white"/>
<path d="M114.417 7.40126C114.417 6.92986 114.091 6.55273 113.297 6.55273C112.036 6.55273 111.195 7.77838 111.195 9.28686C111.195 10.1354 111.616 10.5125 112.456 10.5125C112.97 10.5125 113.39 10.4182 113.764 10.2768V9.71112C113.437 9.85254 113.063 9.94682 112.69 9.94682C112.083 9.94682 111.849 9.8054 111.849 9.19258C111.849 9.05116 111.849 8.8626 111.896 8.76832C113.577 8.67404 114.417 8.24978 114.417 7.40126ZM113.717 7.49554C113.717 7.96694 113.203 8.20264 112.036 8.24978C112.223 7.58982 112.596 7.07128 113.203 7.07128C113.53 7.07128 113.717 7.2127 113.717 7.49554Z" fill="white"/>
<path d="M118.385 7.82556C118.525 7.02418 118.292 6.50564 117.591 6.50564C116.797 6.50564 116.19 7.30702 115.817 8.1084C116.097 7.25988 116.19 6.88276 116.237 6.59992L116.564 4.80859H115.91L114.836 10.4183H115.49L115.63 9.56974C115.817 8.62694 116.564 7.11846 117.311 7.11846C117.638 7.11846 117.778 7.4013 117.638 7.96698L117.171 10.4183H117.825L118.385 7.82556Z" fill="white"/>
<path d="M121.795 6.55223C121.048 6.41081 120.581 7.11791 120.16 8.06071C120.394 7.40075 120.487 6.97649 120.534 6.64651H119.88L119.18 10.4649H119.833L119.974 9.61633C120.16 8.53211 120.907 7.07077 121.608 7.25933L121.795 6.55223Z" fill="white"/>
</g>
<defs>
<clipPath id="clip0_1575_3055">
<rect width="156" height="26" fill="white"/>
</clipPath>
</defs>
</svg>
