<svg width="49" height="59" viewBox="0 0 49 59" fill="none" xmlns="http://www.w3.org/2000/svg">
<g clip-path="url(#clip0_1607_1184)">
<path d="M2.01688 3.12315C1.41213 3.52844 0.914912 4.0734 0.567685 4.71149C0.220459 5.34958 0.0335429 6.06184 0.0228999 6.78744V7.39475C0.185179 8.21225 0.551039 8.97613 1.08694 9.61634C1.62283 10.2565 2.31162 10.7526 3.09014 11.059C3.63619 11.2804 4.22761 11.3682 4.81479 11.3151C5.40197 11.262 5.9678 11.0695 6.46482 10.7538C7.27617 10.3041 8.17413 10.0307 9.09942 9.9518C10.0247 9.87288 10.9563 9.99019 11.8327 10.296L18.1213 12.2807V13.655L11.6794 15.7924C10.8223 16.0609 9.92054 16.1586 9.02554 16.0801C8.13054 16.0015 7.25986 15.7482 6.46324 15.3346C5.56596 14.8762 4.54482 14.7157 3.54932 14.8767C2.7564 15.0229 2.02034 15.3868 1.42428 15.9274C0.828221 16.468 0.395924 17.1638 0.176222 17.9361C-0.0521583 18.7382 -0.0586744 19.5867 0.157363 20.3922C0.3734 21.1977 0.803969 21.9301 1.40359 22.5121C2.03005 23.0407 2.78849 23.3907 3.59855 23.525C4.4086 23.6593 5.24008 23.573 6.00485 23.2752C7.0047 22.8608 7.82134 22.1021 8.30548 21.1378C8.70559 20.3202 9.26377 19.5892 9.94808 18.9866C10.6324 18.384 11.4294 17.9217 12.2934 17.6261L18.5852 15.6422C18.7385 15.9474 18.8919 16.1 19.0452 16.4052L12.2934 24.4969C11.0272 25.8777 9.26182 26.7014 7.38555 26.7869C6.34338 26.8308 5.35667 27.2662 4.62416 28.0054C4.03943 28.5362 3.60436 29.21 3.36215 29.9599C3.11994 30.7097 3.07903 31.5097 3.24346 32.2802C3.41259 33.1335 3.8422 33.914 4.47364 34.5152C5.10507 35.1164 5.90754 35.5089 6.77146 35.6392C7.64991 35.8052 8.55817 35.7047 9.37857 35.3508C10.199 34.9969 10.8937 34.4059 11.3727 33.6545C11.8646 32.8264 12.0794 31.8641 11.986 30.9066C11.9118 29.9976 12.023 29.0829 12.313 28.2177C12.6029 27.3525 13.0657 26.5546 13.6734 25.872L20.576 17.9361C20.7294 18.0887 20.8827 18.0887 21.1893 18.2413L18.4271 30.4512C17.9801 32.291 16.8231 33.8815 15.2066 34.8785C14.4577 35.2888 13.8649 35.9325 13.5192 36.7107C13.1712 37.4438 13.0302 38.2573 13.1112 39.0641C13.1922 39.871 13.4923 40.6406 13.9792 41.2906C14.5208 41.9973 15.2665 42.5223 16.1163 42.7952C16.9661 43.0681 17.8794 43.0759 18.7338 42.8176C19.571 42.5857 20.3218 42.1153 20.894 41.4643C21.4662 40.8133 21.8347 40.01 21.9544 39.1533C22.0643 38.0973 21.8504 37.0329 21.3411 36.1002C20.8161 35.3256 20.4628 34.4488 20.3044 33.5278C20.1461 32.6069 20.1864 31.663 20.4227 30.7587L23.3366 18.3923H23.9499L27.0179 30.909C27.2479 31.8142 27.2848 32.7572 27.1263 33.6775C26.9679 34.5977 26.6176 35.4747 26.098 36.252C25.6634 36.9912 25.4506 37.8389 25.4847 38.6946C25.49 39.556 25.7563 40.3957 26.2488 41.104C26.7414 41.8122 27.4372 42.356 28.2453 42.6642C29.0615 43.0179 29.9656 43.1198 30.8405 42.9565C31.7155 42.7933 32.5211 42.3724 33.1532 41.7485C33.6915 41.1598 34.0721 40.4455 34.2597 39.6717C34.4472 38.8978 34.4358 38.0894 34.2265 37.3211C34.0771 36.801 33.8235 36.3164 33.4808 35.8966C33.138 35.4768 32.7134 35.1305 32.2325 34.8785C30.6357 33.9298 29.4787 32.3932 29.0119 30.6014L25.9439 18.0848C26.0972 17.9321 26.2505 17.9321 26.5572 17.7795L33.7657 25.8712C34.4039 26.5337 34.8863 27.329 35.1781 28.1997C35.4699 29.0704 35.5638 29.9947 35.4531 30.9059C35.3818 31.6973 35.5415 32.4925 35.913 33.1958C36.2867 34.0059 36.8955 34.686 37.6608 35.1486C38.4262 35.6113 39.3132 35.8353 40.2076 35.7918C41.0557 35.7148 41.8649 35.402 42.543 34.8892C43.221 34.3763 43.7406 33.6841 44.0423 32.8914C44.2665 32.1446 44.314 31.3563 44.181 30.5882C44.048 29.8201 43.7381 29.093 43.2757 28.464C42.8792 27.9958 42.3867 27.6173 41.8313 27.354C41.2758 27.0906 40.6702 26.9485 40.0551 26.9371C38.2497 26.874 36.5418 26.1063 35.3005 24.7997L27.9387 16.5555C28.092 16.2503 28.2453 16.0976 28.3986 15.7924L34.9931 17.9361C35.8891 18.206 36.7195 18.6572 37.4321 19.2615C38.1448 19.8658 38.7243 20.6101 39.1344 21.4478C39.4026 22.0126 39.7659 22.5277 40.2084 22.9707C40.759 23.4159 41.4046 23.7299 42.0958 23.8886C42.787 24.0473 43.5055 24.0466 44.1964 23.8864C44.8593 23.7352 45.4795 23.4371 46.0105 23.0141C46.5416 22.5912 46.97 22.0544 47.2636 21.4438C47.5422 20.7873 47.6728 20.078 47.6463 19.3658C47.6198 18.6537 47.4369 17.9559 47.1103 17.3217C46.7178 16.6599 46.1562 16.1135 45.4826 15.7378C44.8091 15.3621 44.0477 15.1706 43.2757 15.1827C42.5835 15.1713 41.8989 15.3284 41.2817 15.6406C40.4693 16.0874 39.5715 16.3591 38.6467 16.438C37.7219 16.5168 36.7908 16.4012 35.9138 16.0984L29.1653 13.9611V12.5867L36.0671 10.4494C36.9297 10.1727 37.842 10.084 38.742 10.1893C39.642 10.2946 40.5087 10.5915 41.2833 11.0598C42.1806 11.5182 43.2017 11.6787 44.1972 11.5177C45.0085 11.376 45.7656 11.0168 46.3872 10.4789C47.0088 9.94099 47.4714 9.2446 47.7252 8.46461C47.9543 7.66197 47.9612 6.81261 47.7452 6.00638C47.5291 5.20015 47.0981 4.46705 46.4978 3.88464C45.9965 3.40055 45.3872 3.04143 44.7198 2.83664C44.0523 2.63186 43.3456 2.58721 42.6575 2.70637C41.9694 2.82552 41.3194 3.10509 40.7606 3.52221C40.2019 3.93934 39.7502 4.48217 39.4426 5.10633C38.3324 6.54561 36.8471 7.65436 35.148 8.312L28.3994 10.4494C28.0165 9.78633 27.5003 9.20907 26.883 8.7537C26.2657 8.29833 25.5607 7.97465 24.812 7.8029C24.0633 7.63116 23.287 7.61504 22.5318 7.75557C21.7765 7.89609 21.0585 8.19023 20.4227 8.61959C19.71 9.07415 19.1285 9.70558 18.7354 10.4517L12.6001 8.46697C11.6965 8.16711 10.8636 7.6877 10.1517 7.05783C9.43981 6.42795 8.86388 5.66073 8.4588 4.80268C8.11312 4.02451 7.52032 3.38083 6.77146 2.97053C6.07699 2.55699 5.27996 2.3455 4.47084 2.36008C3.59692 2.37899 2.7462 2.64353 2.01688 3.12315ZM22.7233 16.4052C21.9846 16.2508 21.322 15.8477 20.8469 15.2638C20.3719 14.6799 20.1135 13.9509 20.1153 13.1996C20.0801 12.5263 20.2522 11.8583 20.6085 11.285C20.9648 10.7116 21.4883 10.2601 22.1093 9.99075C22.7048 9.71834 23.365 9.61686 24.0154 9.69775C24.6658 9.77864 25.2806 10.0387 25.7906 10.4486C26.3903 10.9995 26.7905 11.7322 26.9292 12.5327C27.0678 13.3332 26.937 14.1569 26.5572 14.8759C26.2545 15.3792 25.8283 15.7976 25.3186 16.092C24.8089 16.3863 24.2324 16.5469 23.6433 16.5586C23.3287 16.5827 23.013 16.5296 22.7233 16.4052Z" fill="white"/>
<path d="M0.0235111 51.2129C0.176834 51.0603 0.0235111 51.0603 0.0235111 51.2129L1.25088 51.0603C1.55753 50.9077 1.55753 51.0603 1.55753 51.2129V55.7929C1.54632 56.0163 1.58227 56.2396 1.66306 56.4484C1.74384 56.6571 1.86766 56.8468 2.02655 57.005C2.18544 57.1632 2.37587 57.2866 2.58557 57.3671C2.79527 57.4476 3.01959 57.4835 3.24408 57.4724C3.46862 57.4836 3.69303 57.4478 3.90282 57.3673C4.11262 57.2869 4.30315 57.1635 4.46212 57.0053C4.6211 56.847 4.745 56.6574 4.82583 56.4486C4.90666 56.2397 4.94263 56.0164 4.93141 55.7929V51.2129C4.93098 51.1927 4.93465 51.1727 4.94221 51.154C4.94976 51.1353 4.96104 51.1183 4.97536 51.104C4.98969 51.0898 5.00676 51.0785 5.02556 51.071C5.04435 51.0635 5.06448 51.0599 5.08474 51.0603H6.15878C6.17904 51.0599 6.19917 51.0635 6.21797 51.071C6.23676 51.0785 6.25384 51.0898 6.26816 51.104C6.28248 51.1183 6.29376 51.1353 6.30132 51.154C6.30887 51.1727 6.31254 51.1927 6.31211 51.2129V55.7929C6.30108 56.2169 6.20392 56.6343 6.02649 57.0199C5.84906 57.4055 5.59502 57.7514 5.2797 58.0366C4.96437 58.3219 4.59428 58.5407 4.19173 58.6798C3.78918 58.8189 3.36251 58.8754 2.93743 58.8459C2.14927 58.8111 1.40533 58.4736 0.861946 57.9043C0.318562 57.335 0.0180332 56.5781 0.0235111 55.7929C0.0235111 55.7929 0.0235111 51.2129 0.0235111 51.2129Z" fill="white"/>
<path d="M10.6094 51.2142C10.609 51.194 10.6126 51.174 10.6202 51.1553C10.6278 51.1366 10.639 51.1196 10.6534 51.1053C10.6677 51.091 10.6848 51.0798 10.7036 51.0723C10.7223 51.0648 10.7425 51.0611 10.7627 51.0616H11.0694L15.6675 55.9468V51.3668C15.667 51.3466 15.6707 51.3266 15.6783 51.3079C15.6858 51.2892 15.6971 51.2722 15.7114 51.2579C15.7257 51.2437 15.7428 51.2324 15.7616 51.2249C15.7804 51.2174 15.8005 51.2137 15.8208 51.2142H16.8941C16.9143 51.2137 16.9344 51.2174 16.9532 51.2249C16.972 51.2324 16.9891 51.2437 17.0034 51.2579C17.0178 51.2722 17.029 51.2892 17.0366 51.3079C17.0441 51.3266 17.0478 51.3466 17.0474 51.3668V58.6922C17.0478 58.7124 17.0441 58.7324 17.0366 58.7511C17.029 58.7698 17.0178 58.7868 17.0034 58.8011C16.9891 58.8153 16.972 58.8266 16.9532 58.8341C16.9344 58.8416 16.9143 58.8453 16.8941 58.8448H16.5874L11.9862 53.8102V58.5428C11.9866 58.5629 11.9829 58.583 11.9754 58.6017C11.9678 58.6204 11.9565 58.6374 11.9422 58.6516C11.9279 58.6659 11.9108 58.6771 11.892 58.6846C11.8732 58.6921 11.8531 58.6958 11.8328 58.6954H10.7627C10.7425 58.6958 10.7223 58.6921 10.7036 58.6846C10.6848 58.6771 10.6677 58.6659 10.6534 58.6516C10.639 58.6374 10.6278 58.6204 10.6202 58.6017C10.6126 58.583 10.609 58.5629 10.6094 58.5428V51.2142Z" fill="white"/>
<path d="M21.1875 51.2142C21.1871 51.194 21.1908 51.174 21.1983 51.1553C21.2059 51.1366 21.2172 51.1196 21.2315 51.1053C21.2458 51.091 21.2629 51.0798 21.2817 51.0723C21.3005 51.0648 21.3206 51.0611 21.3409 51.0616H22.2608C22.281 51.0611 22.3012 51.0648 22.32 51.0723C22.3388 51.0798 22.3558 51.091 22.3702 51.1053C22.3845 51.1196 22.3958 51.1366 22.4033 51.1553C22.4109 51.174 22.4145 51.194 22.4141 51.2142V58.6922C22.4145 58.7124 22.4109 58.7324 22.4033 58.7511C22.3958 58.7698 22.3845 58.7868 22.3702 58.8011C22.3558 58.8153 22.3388 58.8266 22.32 58.8341C22.3012 58.8416 22.281 58.8453 22.2608 58.8448H21.3409C21.3206 58.8453 21.3005 58.8416 21.2817 58.8341C21.2629 58.8266 21.2458 58.8153 21.2315 58.8011C21.2172 58.7868 21.2059 58.7698 21.1983 58.7511C21.1908 58.7324 21.1871 58.7124 21.1875 58.6922V51.2142Z" fill="white"/>
<path d="M29.1591 57.4727C29.7724 57.4727 30.079 57.0149 30.079 56.4044C30.0552 56.1428 29.9299 55.9006 29.7296 55.7295C29.5294 55.5584 29.27 55.4717 29.0065 55.4879H27.7792V57.4727H29.1591ZM29.0065 54.2662C29.6198 54.2662 29.9265 53.8084 29.9265 53.1979C29.9315 53.0764 29.9111 52.9551 29.8667 52.8417C29.8222 52.7283 29.7546 52.6254 29.6682 52.5394C29.5817 52.4533 29.4783 52.386 29.3644 52.3418C29.2505 52.2975 29.1287 52.2773 29.0065 52.2823H27.7792V54.267L29.0065 54.2662ZM26.3985 51.2132C26.398 51.193 26.4017 51.173 26.4093 51.1543C26.4168 51.1356 26.4281 51.1186 26.4424 51.1043C26.4567 51.0901 26.4738 51.0788 26.4926 51.0713C26.5114 51.0638 26.5315 51.0601 26.5518 51.0606H29.1599C29.4545 51.0387 29.7504 51.0779 30.0291 51.1756C30.3077 51.2733 30.563 51.4274 30.7788 51.6282C30.9946 51.8291 31.1662 52.0722 31.2829 52.3424C31.3995 52.6126 31.4587 52.9039 31.4565 53.1979C31.4166 53.5795 31.284 53.9457 31.0702 54.2649C30.8564 54.5841 30.5677 54.8467 30.2292 55.0301C30.6326 55.1374 30.9882 55.3762 31.2394 55.7083C31.4905 56.0404 31.6226 56.4467 31.6146 56.8622C31.5987 57.1644 31.522 57.4604 31.3892 57.7326C31.2564 58.0048 31.0701 58.2477 30.8413 58.447C30.6125 58.6462 30.3459 58.7978 30.0572 58.8927C29.7685 58.9877 29.4637 59.024 29.1606 58.9996H26.5526C26.5324 59.0001 26.5123 58.9966 26.4935 58.9892C26.4748 58.9819 26.4577 58.9708 26.4433 58.9567C26.4289 58.9426 26.4175 58.9258 26.4098 58.9072C26.4021 58.8886 26.3983 58.8687 26.3985 58.8486V51.2132Z" fill="white"/>
<path d="M38.2107 56.2512L36.9833 53.8086L35.7559 56.2512H38.2107ZM33.1526 58.5412L36.8331 51.0608L36.9865 50.9082H37.1398C37.2931 50.9082 37.2931 50.9082 37.2931 51.0608L40.9721 58.5389C40.9721 58.6915 40.9721 58.8441 40.8187 58.8441H39.7447C39.5914 58.8441 39.438 58.8441 39.438 58.6915L38.8248 57.4698H35.2968L34.6835 58.6962C34.6835 58.8488 34.5301 58.8488 34.3768 58.8488H33.3028C33.1494 58.8472 32.9961 58.6962 33.1494 58.5389L33.1526 58.5412Z" fill="white"/>
<path d="M46.3467 54.5724C46.5006 54.5707 46.6523 54.5367 46.7921 54.4726C46.9319 54.4085 47.0565 54.3158 47.1578 54.2004C47.259 54.0851 47.3348 53.9499 47.3799 53.8034C47.4251 53.657 47.4388 53.5028 47.42 53.3508C47.4233 53.2095 47.3978 53.0691 47.3451 52.938C47.2924 52.8069 47.2134 52.6878 47.1131 52.5879C47.0127 52.488 46.8931 52.4095 46.7614 52.357C46.6296 52.3045 46.4886 52.2791 46.3467 52.2825H45.1201V54.5724H46.3467ZM43.5861 51.2134C43.5857 51.1932 43.5893 51.1732 43.5969 51.1545C43.6045 51.1358 43.6157 51.1188 43.6301 51.1045C43.6444 51.0903 43.6615 51.079 43.6803 51.0715C43.699 51.064 43.7192 51.0603 43.7394 51.0608H46.3475C46.671 51.0564 46.9921 51.1166 47.2918 51.2378C47.5916 51.3591 47.8639 51.5388 48.0927 51.7665C48.3215 51.9942 48.5022 52.2651 48.624 52.5635C48.7459 52.8618 48.8065 53.1814 48.8022 53.5034C48.8164 54.1698 48.5673 54.8152 48.1084 55.3006C47.6495 55.7861 47.0174 56.0729 46.3483 56.0994H44.9668V58.6954C44.9672 58.7155 44.9636 58.7356 44.956 58.7543C44.9485 58.773 44.9372 58.79 44.9229 58.8042C44.9085 58.8185 44.8915 58.8297 44.8727 58.8372C44.8539 58.8448 44.8337 58.8484 44.8135 58.848H43.7394C43.7188 58.8484 43.6984 58.8447 43.6793 58.8369C43.6602 58.8291 43.643 58.8176 43.6286 58.8029C43.6142 58.7882 43.603 58.7707 43.5957 58.7516C43.5884 58.7324 43.5851 58.7119 43.5861 58.6914V51.2134Z" fill="white"/>
</g>
<defs>
<clipPath id="clip0_1607_1184">
<rect width="49" height="59" fill="white"/>
</clipPath>
</defs>
</svg>
